<svg width="653" height="122" viewBox="0 0 653 122" fill="none" xmlns="http://www.w3.org/2000/svg">
<path d="M37 93.9C35.6 95.1 33.8667 96.0333 31.8 96.7C29.7333 97.3 27.6 97.6 25.4 97.6C20.0667 97.6 15.9333 96.1667 13 93.3C10.0667 90.4333 8.6 86.3333 8.6 81V32.4H18.2V44H33.4V51.9H18.2V80.6C18.2 83.4667 18.9 85.6667 20.3 87.2C21.7667 88.7333 23.8333 89.5 26.5 89.5C29.4333 89.5 31.9333 88.6667 34 87L37 93.9ZM69.4953 97.6C64.2286 97.6 59.4953 96.4333 55.2953 94.1C51.0953 91.7667 47.7953 88.5667 45.3953 84.5C43.062 80.3667 41.8953 75.7 41.8953 70.5C41.8953 65.3 43.062 60.6667 45.3953 56.6C47.7953 52.4667 51.0953 49.2667 55.2953 47C59.4953 44.6667 64.2286 43.5 69.4953 43.5C74.762 43.5 79.462 44.6667 83.5953 47C87.7953 49.2667 91.062 52.4667 93.3953 56.6C95.7953 60.6667 96.9953 65.3 96.9953 70.5C96.9953 75.7 95.7953 80.3667 93.3953 84.5C91.062 88.5667 87.7953 91.7667 83.5953 94.1C79.462 96.4333 74.762 97.6 69.4953 97.6ZM69.4953 89.2C72.8953 89.2 75.9286 88.4333 78.5953 86.9C81.3286 85.3 83.462 83.1 84.9953 80.3C86.5286 77.4333 87.2953 74.1667 87.2953 70.5C87.2953 66.8333 86.5286 63.6 84.9953 60.8C83.462 57.9333 81.3286 55.7333 78.5953 54.2C75.9286 52.6667 72.8953 51.9 69.4953 51.9C66.0953 51.9 63.0286 52.6667 60.2953 54.2C57.6286 55.7333 55.4953 57.9333 53.8953 60.8C52.362 63.6 51.5953 66.8333 51.5953 70.5C51.5953 74.1667 52.362 77.4333 53.8953 80.3C55.4953 83.1 57.6286 85.3 60.2953 86.9C63.0286 88.4333 66.0953 89.2 69.4953 89.2ZM133.372 97.6C127.972 97.6 123.139 96.4333 118.872 94.1C114.672 91.7667 111.372 88.5667 108.972 84.5C106.572 80.3667 105.372 75.7 105.372 70.5C105.372 65.3 106.572 60.6667 108.972 56.6C111.372 52.4667 114.672 49.2667 118.872 47C123.139 44.6667 127.972 43.5 133.372 43.5C138.172 43.5 142.439 44.4667 146.172 46.4C149.972 48.3333 152.905 51.1333 154.972 54.8L147.672 59.5C146.005 56.9667 143.939 55.0667 141.472 53.8C139.005 52.5333 136.272 51.9 133.272 51.9C129.805 51.9 126.672 52.6667 123.872 54.2C121.139 55.7333 118.972 57.9333 117.372 60.8C115.839 63.6 115.072 66.8333 115.072 70.5C115.072 74.2333 115.839 77.5333 117.372 80.4C118.972 83.2 121.139 85.3667 123.872 86.9C126.672 88.4333 129.805 89.2 133.272 89.2C136.272 89.2 139.005 88.5667 141.472 87.3C143.939 86.0333 146.005 84.1333 147.672 81.6L154.972 86.2C152.905 89.8667 149.972 92.7 146.172 94.7C142.439 96.6333 138.172 97.6 133.372 97.6ZM216.62 44V97H207.42V88.6C205.286 91.5333 202.586 93.7667 199.32 95.3C196.053 96.8333 192.453 97.6 188.52 97.6C183.386 97.6 178.786 96.4667 174.72 94.2C170.653 91.9333 167.453 88.7667 165.12 84.7C162.853 80.5667 161.72 75.8333 161.72 70.5C161.72 65.1667 162.853 60.4667 165.12 56.4C167.453 52.3333 170.653 49.1667 174.72 46.9C178.786 44.6333 183.386 43.5 188.52 43.5C192.32 43.5 195.82 44.2333 199.02 45.7C202.22 47.1 204.886 49.2 207.02 52V44H216.62ZM189.32 89.2C192.653 89.2 195.686 88.4333 198.42 86.9C201.153 85.3 203.286 83.1 204.82 80.3C206.353 77.4333 207.12 74.1667 207.12 70.5C207.12 66.8333 206.353 63.6 204.82 60.8C203.286 57.9333 201.153 55.7333 198.42 54.2C195.686 52.6667 192.653 51.9 189.32 51.9C185.92 51.9 182.853 52.6667 180.12 54.2C177.453 55.7333 175.32 57.9333 173.72 60.8C172.186 63.6 171.42 66.8333 171.42 70.5C171.42 74.1667 172.186 77.4333 173.72 80.3C175.32 83.1 177.453 85.3 180.12 86.9C182.853 88.4333 185.92 89.2 189.32 89.2ZM284.739 97.6C279.339 97.6 274.506 96.4333 270.239 94.1C266.039 91.7667 262.739 88.5667 260.339 84.5C257.939 80.3667 256.739 75.7 256.739 70.5C256.739 65.3 257.939 60.6667 260.339 56.6C262.739 52.4667 266.039 49.2667 270.239 47C274.506 44.6667 279.339 43.5 284.739 43.5C289.539 43.5 293.806 44.4667 297.539 46.4C301.339 48.3333 304.272 51.1333 306.339 54.8L299.039 59.5C297.372 56.9667 295.306 55.0667 292.839 53.8C290.372 52.5333 287.639 51.9 284.639 51.9C281.172 51.9 278.039 52.6667 275.239 54.2C272.506 55.7333 270.339 57.9333 268.739 60.8C267.206 63.6 266.439 66.8333 266.439 70.5C266.439 74.2333 267.206 77.5333 268.739 80.4C270.339 83.2 272.506 85.3667 275.239 86.9C278.039 88.4333 281.172 89.2 284.639 89.2C287.639 89.2 290.372 88.5667 292.839 87.3C295.306 86.0333 297.372 84.1333 299.039 81.6L306.339 86.2C304.272 89.8667 301.339 92.7 297.539 94.7C293.806 96.6333 289.539 97.6 284.739 97.6ZM327.968 52.9C329.635 49.8333 332.101 47.5 335.368 45.9C338.635 44.3 342.601 43.5 347.268 43.5V52.8C346.735 52.7333 346.001 52.7 345.068 52.7C339.868 52.7 335.768 54.2667 332.768 57.4C329.835 60.4667 328.368 64.8667 328.368 70.6V97H318.768V44H327.968V52.9ZM382.512 89.2C388.845 89.2 393.945 87.0667 397.812 82.8L403.012 89C400.678 91.8 397.712 93.9333 394.112 95.4C390.578 96.8667 386.612 97.6 382.212 97.6C376.612 97.6 371.645 96.4667 367.312 94.2C362.978 91.8667 359.612 88.6333 357.212 84.5C354.878 80.3667 353.712 75.7 353.712 70.5C353.712 65.3667 354.845 60.7333 357.112 56.6C359.445 52.4667 362.612 49.2667 366.612 47C370.678 44.6667 375.245 43.5 380.312 43.5C385.112 43.5 389.478 44.6 393.412 46.8C397.345 48.9333 400.478 51.9667 402.812 55.9C405.145 59.8333 406.345 64.3667 406.412 69.5L364.312 77.7C365.645 81.3667 367.878 84.2 371.012 86.2C374.212 88.2 378.045 89.2 382.512 89.2ZM380.312 51.6C376.978 51.6 373.978 52.3667 371.312 53.9C368.712 55.4333 366.678 57.6 365.212 60.4C363.745 63.1333 363.012 66.3333 363.012 70V71L396.912 64.6C396.045 60.7333 394.112 57.6 391.112 55.2C388.112 52.8 384.512 51.6 380.312 51.6ZM469.842 44V97H460.642V88.6C458.509 91.5333 455.809 93.7667 452.542 95.3C449.276 96.8333 445.676 97.6 441.742 97.6C436.609 97.6 432.009 96.4667 427.942 94.2C423.876 91.9333 420.676 88.7667 418.342 84.7C416.076 80.5667 414.942 75.8333 414.942 70.5C414.942 65.1667 416.076 60.4667 418.342 56.4C420.676 52.3333 423.876 49.1667 427.942 46.9C432.009 44.6333 436.609 43.5 441.742 43.5C445.542 43.5 449.042 44.2333 452.242 45.7C455.442 47.1 458.109 49.2 460.242 52V44H469.842ZM442.542 89.2C445.876 89.2 448.909 88.4333 451.642 86.9C454.376 85.3 456.509 83.1 458.042 80.3C459.576 77.4333 460.342 74.1667 460.342 70.5C460.342 66.8333 459.576 63.6 458.042 60.8C456.509 57.9333 454.376 55.7333 451.642 54.2C448.909 52.6667 445.876 51.9 442.542 51.9C439.142 51.9 436.076 52.6667 433.342 54.2C430.676 55.7333 428.542 57.9333 426.942 60.8C425.409 63.6 424.642 66.8333 424.642 70.5C424.642 74.1667 425.409 77.4333 426.942 80.3C428.542 83.1 430.676 85.3 433.342 86.9C436.076 88.4333 439.142 89.2 442.542 89.2ZM554.306 43.5C560.973 43.5 566.24 45.4333 570.106 49.3C574.04 53.1667 576.006 58.9 576.006 66.5V97H566.406V67.6C566.406 62.4667 565.206 58.6 562.806 56C560.473 53.4 557.106 52.1 552.706 52.1C547.84 52.1 543.973 53.6333 541.106 56.7C538.24 59.7 536.806 64.0333 536.806 69.7V97H527.206V67.6C527.206 62.4667 526.006 58.6 523.606 56C521.273 53.4 517.906 52.1 513.506 52.1C508.64 52.1 504.773 53.6333 501.906 56.7C499.04 59.7 497.606 64.0333 497.606 69.7V97H488.006V44H497.206V51.9C499.14 49.1667 501.673 47.1 504.806 45.7C507.94 44.2333 511.506 43.5 515.506 43.5C519.64 43.5 523.306 44.3333 526.506 46C529.706 47.6667 532.173 50.1 533.906 53.3C535.906 50.2333 538.673 47.8333 542.206 46.1C545.806 44.3667 549.84 43.5 554.306 43.5ZM643.07 44V89.8C643.07 99.0667 640.904 105.9 636.57 110.3C632.237 114.767 625.737 117 617.07 117C612.337 117 607.804 116.3 603.47 114.9C599.204 113.567 595.704 111.633 592.97 109.1L597.67 101.7C600.004 103.833 602.804 105.5 606.07 106.7C609.404 107.9 612.904 108.5 616.57 108.5C622.37 108.5 626.637 107.033 629.37 104.1C632.104 101.233 633.47 96.8 633.47 90.8V86.9C631.537 89.4333 629.037 91.4 625.97 92.8C622.904 94.1333 619.57 94.8 615.97 94.8C608.904 94.8 603.337 92.8667 599.27 89C595.204 85.1333 593.17 79.4 593.17 71.8V44H602.77V70.7C602.77 75.7667 604.004 79.6333 606.47 82.3C608.937 84.9 612.47 86.2 617.07 86.2C622.137 86.2 626.137 84.6667 629.07 81.6C632.004 78.5333 633.47 74.2 633.47 68.6V44H643.07Z" fill="url(#paint0_linear_752_8)"/>
<defs>
<linearGradient id="paint0_linear_752_8" x1="0" y1="61" x2="653" y2="61" gradientUnits="userSpaceOnUse">
<stop stop-color="#FF4B4B"/>
<stop offset="1" stop-color="#D809FA"/>
</linearGradient>
</defs>
</svg>
